HIERARCHY
ROOT pelvis
{
  OFFSET 0 100 0
  CHANNELS 6 Xposition Yposition Zposition Zrotation Xrotation Yrotation
  JOINT pelvis_right_femur
  {
    OFFSET -9.123832 -4.535613 2.258885
    CHANNELS 3 Zrotation Xrotation Yrotation
    JOINT right_femur_tibia
    {
      OFFSET -0.1797311 -42.64554 -1.003787
      CHANNELS 3 Zrotation Xrotation Yrotation
      JOINT right_tibia_foot
      {
        OFFSET 0.340718 -41.77267 0.4468169
        CHANNELS 3 Zrotation Xrotation Yrotation
        End Site
        {
          OFFSET 0 -2 15
        }
      }
    }
  }
  JOINT pelvis_left_femur
  {
    OFFSET 9.123832 -4.535613 2.258885
    CHANNELS 3 Zrotation Xrotation Yrotation
    JOINT left_femur_tibia
    {
      OFFSET 0.1797311 -42.64554 -1.003787
      CHANNELS 3 Zrotation Xrotation Yrotation
      JOINT left_tibia_foot
      {
        OFFSET -0.4551971 -40.68794 -0.378606
        CHANNELS 3 Zrotation Xrotation Yrotation
        End Site
        {
          OFFSET 0 -2 15
        }
      }
    }
  }
  JOINT pelvis_spine1
  {
    OFFSET 0 2.997207 -0.4411774
    CHANNELS 3 Zrotation Xrotation Yrotation
    JOINT spine1
    {
      OFFSET 0 27.14497 -1.141491
      CHANNELS 3 Zrotation Xrotation Yrotation
      JOINT spine2
      {
        OFFSET 0 24 -2.963401
        CHANNELS 3 Zrotation Xrotation Yrotation
        JOINT neck
        {
          OFFSET 0 9.223981 1.374317
          CHANNELS 3 Zrotation Xrotation Yrotation
          End Site
          {
            OFFSET 0 20 0
          }
        }
      }
      JOINT right_manubrium
      {
        OFFSET -4.258001 17.16087 1
        CHANNELS 3 Zrotation Xrotation Yrotation
        JOINT right_clavicle
        {
          OFFSET -10 3 -1.938228
          CHANNELS 3 Zrotation Xrotation Yrotation
          JOINT right_humerus
          {
            OFFSET -28.25479 -1.166387 -1.125847
            CHANNELS 3 Zrotation Xrotation Yrotation
            JOINT right_radius
            {
              OFFSET -23.03757 -1.155622 3.29834
              CHANNELS 3 Zrotation Xrotation Yrotation
              End Site
              {
                OFFSET -15 0 0
              }
            }
          }
        }
      }
      JOINT left_manubrium
      {
        OFFSET 4.258001 17.16087 1
        CHANNELS 3 Zrotation Xrotation Yrotation
        JOINT left_clavicle
        {
          OFFSET 10 3 -1.938228
          CHANNELS 3 Zrotation Xrotation Yrotation
          JOINT left_humerus
          {
            OFFSET 28.74886 -0.455825 -0.3072682
            CHANNELS 3 Zrotation Xrotation Yrotation
            JOINT left_radius
            {
              OFFSET 22.69387 -0.8500498 3.500701
              CHANNELS 3 Zrotation Xrotation Yrotation
              End Site
              {
                OFFSET 15 0 0
              }
            }
          }
        }
      }
    }
  }
}
MOTION
Frames:	23
Frame Time:	0.008333333333333333
158.316 89.21455 -141.3537 -0.05801779 -0.9237653 154.8899 1.984521 -10.43756 32.64206 -0 21.6575 -0 -10.24255 -6.667379 -17.29358 17.49682 17.5375 18.74631 -0 4.60416 -0 -18.40155 22.75734 32.69323 4.59621 6.129696 -52.87386 -0.8201117 -7.662889 -6.342775 -23.44814 32.44986 26.60505 15.6924 -75.28601 38.96044 23.13602 -13.57709 -7.795775 9.448999 4.23466 -22.36096 -0 0 -0.005359115 2.781583 3.128835 -11.42387 -45.61802 8.260369 -20.13192 9.586733 36.78197 -61.03876 -0 0 -23.93209 -6.041251 8.834869 -0.9537853
158.4169 89.25661 -141.3569 -0.1224919 -1.016096 154.7606 2.035202 -10.46208 32.73978 -0 21.47727 -0 -10.21783 -6.525264 -17.30595 17.54065 17.41055 18.81423 -0 4.606018 -0 -18.53403 23.0489 32.78578 4.69669 6.398022 -53.2456 -0.7495926 -7.690331 -6.228074 -23.45828 31.87436 26.67151 16.23358 -75.6334 39.80986 22.95043 -13.54332 -8.18392 9.66301 3.448947 -24.01808 -0 0 -0.02777703 2.773899 2.262969 -11.7621 -45.11155 8.844318 -20.30878 10.18449 37.33809 -62.76898 -0 0 -25.59379 -6.239633 9.051431 -1.468931
158.4676 89.27473 -141.318 -0.1863531 -1.104918 154.6923 2.017534 -10.4912 32.82787 -0 21.32559 -0 -10.19335 -6.3762 -17.31887 17.58499 17.25242 18.90115 -0 4.591253 -0 -18.65143 23.31139 32.87688 4.79062 6.648743 -53.5879 -0.6593037 -7.695029 -6.08352 -23.45902 31.35561 26.72721 16.76438 -75.94411 40.61863 22.80187 -13.4939 -8.541713 9.894415 2.696896 -25.6321 -0 0 0.0026787 2.765264 1.441261 -12.1002 -44.55878 9.381716 -20.47771 10.83263 37.85686 -64.49828 -0 0 -27.29686 -6.425943 9.281952 -1.994902
158.5653 89.32015 -141.305 -0.2514672 -1.191467 154.6132 2.030608 -10.51724 32.89684 -0 21.15388 -0 -10.16686 -6.222993 -17.3375 17.61849 17.07332 18.98549 -0 4.579372 -0 -18.75627 23.54823 32.96863 4.804338 6.899153 -53.91711 -0.6259329 -7.659699 -5.943321 -23.44917 30.87296 26.77654 17.31397 -76.23547 41.42599 22.58531 -13.39158 -8.93933 10.05533 1.996577 -27.23407 -0 0 -0.0912166 2.758747 0.6518472 -12.42914 -43.96605 9.872307 -20.61977 11.51643 38.34035 -66.2105 -0 0 -29.04105 -6.600051 9.522214 -2.529891
158.6407 89.40264 -141.2651 -0.3183951 -1.275213 154.5874 2.037001 -10.53973 32.93818 -0 20.97022 -0 -10.13822 -6.063928 -17.3653 17.63796 16.86681 19.09351 -0 4.546321 -0 -18.84787 23.75915 33.05575 4.864267 7.129169 -54.24409 -0.5559784 -7.665885 -5.793107 -23.43171 30.42266 26.81714 17.8685 -76.513 42.21706 22.41556 -13.32151 -9.281348 10.22811 1.300387 -28.75269 -0 0 -0.1293541 2.749187 -0.1078571 -12.73644 -43.3426 10.32102 -20.77481 12.23881 38.7789 -67.90514 -0 0 -30.81552 -6.758527 9.770004 -3.071832
158.6895 89.51892 -141.2586 -0.3871043 -1.359169 154.5947 2.017815 -10.563 32.95522 -0 20.78819 -0 -10.10793 -5.900215 -17.40192 17.63647 16.65104 19.22695 -0 4.501122 -0 -18.92686 23.94477 33.13785 4.941229 7.407103 -54.5817 -0.4957489 -7.688472 -5.650978 -23.41122 30.00363 26.85357 18.42557 -76.77411 42.99398 22.25377 -13.24968 -9.597883 10.37189 0.6384894 -30.20318 -0 0 -0.1358907 2.740979 -0.8281595 -13.01827 -42.6967 10.71597 -20.95393 12.99612 39.16257 -69.58892 -0 0 -32.60387 -6.903538 10.01906 -3.613411
158.7269 89.54769 -141.1815 -0.4550199 -1.44004 154.6832 1.994805 -10.60027 32.94908 -0 20.59709 -0 -10.07778 -5.735691 -17.44564 17.64495 16.41789 19.37154 -0 4.439582 -0 -18.99041 24.1045 33.21137 4.976578 7.669373 -54.8759 -0.4542486 -7.708178 -5.491385 -23.39722 29.63416 26.89369 18.96752 -77.00157 43.73829 22.08614 -13.15254 -9.904393 10.4813 0.02390391 -31.60709 -0 0 -0.1069377 2.735562 -1.50698 -13.27248 -42.02812 11.03905 -21.14208 13.78365 39.47369 -71.27641 -0 0 -34.4161 -7.036275 10.26802 -4.153971
158.7727 89.66236 -141.1753 -0.5228275 -1.518794 154.7668 1.986579 -10.61725 32.92046 -0 20.40138 -0 -10.04707 -5.56921 -17.49155 17.58537 16.14961 19.52322 -0 4.378024 -0 -19.04074 24.23814 33.27451 5.023995 7.926118 -55.17643 -0.4145784 -7.741016 -5.345196 -23.38584 29.30228 26.9347 19.50548 -77.20672 44.46301 21.91787 -13.04665 -10.17994 10.55658 -0.5475721 -32.93 -0 0 -0.01251179 2.734076 -2.143642 -13.4962 -41.3462 11.31599 -21.36079 14.59936 39.73317 -72.95381 -0 0 -36.21863 -7.156317 10.51557 -4.692736
158.8219 89.68627 -141.1074 -0.593744 -1.59837 154.9013 1.92579 -10.61732 32.87387 -0 20.23368 -0 -10.0175 -5.40063 -17.5342 17.62901 15.91931 19.65237 -0 4.318628 -0 -19.08936 24.36485 33.33804 5.060457 8.184269 -55.45465 -0.3892101 -7.783543 -5.203438 -23.37957 29.01683 26.98362 20.04645 -77.38171 45.17555 21.75079 -12.9382 -10.42004 10.60245 -1.079247 -34.1653 -0 0 -0.1934471 2.737029 -2.737421 -13.68518 -40.65023 11.52601 -21.61758 15.43961 39.92196 -74.61529 -0 0 -37.99972 -7.26252 10.76083 -5.227189
158.8062 89.81031 -141.032 -0.6621673 -1.675843 155.0875 1.865682 -10.6449 32.79446 -0 20.0361 -0 -9.989213 -5.238696 -17.58915 17.62439 15.65794 19.8108 -0 4.24402 -0 -19.13287 24.48212 33.40196 5.110616 8.452525 -55.72039 -0.3466765 -7.833932 -5.057036 -23.38236 28.77403 27.03882 20.57131 -77.52923 45.85846 21.60274 -12.84242 -10.62864 10.63104 -1.579721 -35.31814 -0 0 -0.3652172 2.745814 -3.290746 -13.8412 -39.93612 11.68292 -21.87469 16.28233 40.05878 -76.21217 -0 0 -39.7514 -7.355012 11.00231 -5.751189
158.8074 89.84152 -140.9804 -0.7302138 -1.751634 155.28 1.820227 -10.68013 32.68325 -0 19.82271 -0 -9.963728 -5.082511 -17.65719 17.62521 15.39957 19.95401 -0 4.178587 -0 -19.17092 24.58937 33.46586 5.13916 8.708335 -55.95976 -0.317291 -7.87617 -4.918263 -23.39335 28.56508 27.09784 21.06001 -77.64753 46.49278 21.44037 -12.7125 -10.84143 10.60993 -2.019987 -36.42699 -0 0 -0.4010984 2.759144 -3.807841 -13.97845 -39.22209 11.77085 -22.15879 17.1268 40.11848 -77.77689 -0 0 -41.47543 -7.434328 11.23769 -6.261553
158.8418 89.85732 -140.9266 -0.7923985 -1.829062 155.4805 1.701393 -10.69431 32.54493 -0 19.63376 -0 -9.942131 -4.930991 -17.72896 17.6209 15.14179 20.08196 -0 4.121627 -0 -19.20405 24.68704 33.52805 5.127421 8.943777 -56.1728 -0.295418 -7.925761 -4.788336 -23.4078 28.39462 27.16352 21.53204 -77.73616 47.09711 21.26211 -12.56882 -11.04616 10.54108 -2.408838 -37.4635 -0 0 -0.408932 2.776964 -4.285337 -14.08115 -38.5059 11.79077 -22.45624 17.96015 40.11527 -79.27703 -0 0 -43.12801 -7.499602 11.46558 -6.757235
158.8163 89.93293 -140.8913 -0.8548667 -1.905664 155.7279 1.577867 -10.72632 32.37407 -0 19.42169 -0 -9.922501 -4.785144 -17.81059 17.60225 14.89038 20.22236 -0 4.053043 -0 -19.23083 24.77294 33.588 5.153583 9.18701 -56.35518 -0.2395332 -8.005989 -4.637101 -23.43171 28.25074 27.24065 22.00604 -77.80531 47.69658 21.13229 -12.46965 -11.2063 10.4764 -2.789552 -38.40988 -0 0 -0.3476384 2.794518 -4.733186 -14.159 -37.81334 11.76752 -22.75953 18.76535 40.06105 -80.6992 -0 0 -44.6995 -7.551998 11.68388 -7.234038
158.7901 89.95124 -140.8543 -0.9187697 -1.98335 156.003 1.454625 -10.73508 32.1726 -0 19.20807 -0 -9.903954 -4.640274 -17.89493 17.60372 14.65168 20.35701 -0 3.981394 -0 -19.25189 24.8478 33.64409 5.1897 9.454707 -56.52152 -0.2037519 -8.066033 -4.499107 -23.46755 28.12787 27.32215 22.44233 -77.85543 48.24821 21.00798 -12.35671 -11.36101 10.38497 -3.128733 -39.31382 -0 0 -0.1481455 2.815376 -5.149705 -14.2206 -37.15145 11.70928 -23.07344 19.54005 39.9602 -82.06168 -0 0 -46.19583 -7.592817 11.89089 -7.685974
158.8119 90.01151 -140.7825 -0.9778375 -2.058074 156.3211 1.350945 -10.72967 31.94095 -0 18.98085 -0 -9.885811 -4.495803 -17.9832 17.58259 14.38569 20.47863 -0 3.889168 -0 -19.2565 24.89222 33.66969 5.185831 9.694831 -56.64186 -0.1889199 -8.158028 -4.348978 -23.51645 28.032 27.41211 22.85582 -77.88728 48.76612 20.86514 -12.24771 -11.46703 10.26879 -3.433727 -40.11232 -0 0 -0.526487 2.843332 -5.536148 -14.25122 -36.4925 11.59052 -23.3954 20.28952 39.80833 -83.32157 -0 0 -47.59918 -7.623881 12.08627 -8.110885
158.8039 89.97737 -140.7212 -1.036775 -2.133495 156.6597 1.241325 -10.70257 31.67855 -0 18.75174 -0 -9.868956 -4.352572 -18.07411 17.57029 14.13683 20.59067 -0 3.800385 -0 -19.25642 24.92775 33.68938 5.177949 9.938605 -56.7433 -0.1910363 -8.240805 -4.211033 -23.57751 27.95528 27.51124 23.25522 -77.90436 49.26192 20.72692 -12.13286 -11.5512 10.13561 -3.700534 -40.83652 -0 0 -0.7463358 2.876145 -5.891319 -14.25913 -35.87721 11.44686 -23.72343 20.99274 39.62042 -84.5089 -0 0 -48.91291 -7.642429 12.26929 -8.506784
158.7526 90.08853 -140.6579 -1.090533 -2.207728 157.0067 1.07255 -10.71814 31.38115 -0 18.49965 -0 -9.853121 -4.215017 -18.17495 17.53216 13.87601 20.70241 -0 3.707992 -0 -19.25404 24.95406 33.70362 5.201496 10.20096 -56.85268 -0.2057799 -8.315242 -4.100214 -23.65387 27.89388 27.61865 23.64911 -77.91619 49.74447 20.59952 -12.03329 -11.60923 10.00173 -3.946965 -41.48609 -0 0 -0.9783046 2.914529 -6.217697 -14.2431 -35.30198 11.32239 -24.04184 21.65697 39.43945 -85.62723 -0 0 -50.12646 -7.64838 12.44065 -8.873254
158.7123 90.16294 -140.5883 -1.140518 -2.28434 157.4572 0.9141284 -10.70477 31.05084 -0 18.23816 -0 -9.839789 -4.081977 -18.28206 17.50659 13.63358 20.80316 -0 3.622668 -0 -19.2478 24.97234 33.71162 5.223482 10.4233 -56.88048 -0.2143307 -8.40624 -3.939571 -23.74191 27.84775 27.73406 24.02693 -77.91511 50.20343 20.4889 -11.9393 -11.65399 9.868017 -4.16591 -42.07544 -0 0 -1.091684 2.951266 -6.519741 -14.20905 -34.77591 11.11661 -24.31698 22.226 39.19864 -86.54609 -0 0 -51.15861 -7.630642 12.59 -9.187714
158.7061 90.18237 -140.5441 -1.188169 -2.357196 157.8766 0.7763754 -10.66069 30.69379 -0 17.97439 -0 -9.830071 -3.954537 -18.3935 17.52112 13.31244 20.88613 -0 3.504782 -0 -19.23587 24.97841 33.71252 5.230458 10.63889 -56.89186 -0.2419612 -8.473929 -3.798993 -23.83402 27.81576 27.8571 24.40339 -77.90057 50.65135 20.38138 -11.82539 -11.74327 9.726565 -4.347165 -42.66096 -0 0 -1.125759 2.989257 -6.799748 -14.17159 -34.31882 10.85059 -24.56189 22.69491 38.90557 -87.29475 -0 0 -52.02159 -7.588794 12.71477 -9.448155
158.6496 90.18928 -140.4517 -1.228972 -2.429223 158.34 0.5975929 -10.6392 30.30686 -0 17.69987 -0 -9.82326 -3.833991 -18.50808 17.53589 12.99569 20.96093 -0 3.391674 -0 -19.2199 24.9763 33.70792 5.204438 10.86506 -56.86849 -0.3024305 -8.518073 -3.667591 -23.93578 27.80568 27.99647 24.79696 -77.8699 51.10974 20.2773 -11.73221 -11.7769 9.583062 -4.511961 -43.13903 -0 0 -1.165101 3.024662 -7.055815 -14.11293 -33.91615 10.63228 -24.80684 23.12203 38.63794 -88.00119 -0 0 -52.79213 -7.534716 12.82576 -9.680561
158.6182 90.17133 -140.338 -1.264231 -2.50205 158.8315 0.3989075 -10.61441 29.88604 -0 17.41057 -0 -9.819276 -3.718187 -18.62761 17.52934 12.66902 21.03121 -0 3.277938 -0 -19.20063 24.96646 33.69559 5.157978 11.10398 -56.80449 -0.3801926 -8.552744 -3.533922 -24.04679 27.80723 28.14045 25.16166 -77.82771 51.52822 20.20013 -11.6635 -11.81457 9.453393 -4.670053 -43.57642 -0 0 -1.165877 3.061445 -7.293384 -14.04662 -33.57389 10.386 -25.00062 23.45298 38.35706 -88.52681 -0 0 -53.38255 -7.461133 12.91152 -9.856326
158.5501 90.28044 -140.2712 -1.299058 -2.57593 159.3899 0.2006767 -10.57534 29.44701 -0 17.14516 -0 -9.816161 -3.603549 -18.75507 17.58512 12.37228 21.07291 -0 3.164669 -0 -19.18027 24.94815 33.67415 5.139519 11.28924 -56.70473 -0.4392556 -8.592326 -3.395885 -24.17778 27.81625 28.28921 25.49227 -77.78466 51.90706 20.16364 -11.62665 -11.86417 9.345256 -4.826915 -43.98621 -0 0 -1.119187 3.098145 -7.5153 -13.97915 -33.29886 10.10372 -25.13008 23.67193 38.06916 -88.85549 -0 0 -53.76745 -7.367205 12.97031 -9.972154
158.5285 90.20902 -140.1894 -1.330148 -2.647325 159.9654 0.007179206 -10.54099 28.99038 -0 16.89402 -0 -9.816677 -3.495123 -18.89044 17.66245 12.07296 21.07568 -0 3.064328 -0 -19.15621 24.92356 33.64618 5.105939 11.49324 -56.5738 -0.5494765 -8.624661 -3.268325 -24.32232 27.81975 28.43454 25.7714 -77.74252 52.22773 20.1183 -11.55649 -11.87566 9.212881 -4.935062 -44.32576 -0 0 -1.132795 3.129977 -7.716306 -13.89712 -33.08333 9.826458 -25.27781 23.84256 37.77292 -89.12347 -0 0 -54.05582 -7.262728 13.01329 -10.05912
